<?xml version="1.0" ?><svg viewBox="0 0 512 512" xmlns="http://www.w3.org/2000/svg"><defs><style>.cls-1{fill:#202d40;}.cls-2{fill:#bdc3c8;}.cls-3{fill:#c0402b;}</style></defs><title/><g id="Google"><g data-name="Gplay movies" id="Gplay_movies"><path class="cls-1" d="M193.61,88.61c-25.22,0-50.44.09-75.66-.12-4.68,0-6.33,1.05-6.33,6.11q.22,129.8,0,259.6c0,5.85,2.16,6.56,7.15,6.55q88.87-.25,177.77-.13c2.41,0,4.93-.59,7.23.72Q264,384,224.28,406.64q-62.71,35.67-125.44,71.29a73.32,73.32,0,0,1-12.11,5.91c-18.94,6.6-33.75-2.27-36.58-22.12a86.48,86.48,0,0,1-.68-12.26q0-193.45,0-386.9a65.28,65.28,0,0,1,2.09-18.25C55.43,30.88,67.31,23.77,81,26.63a49.22,49.22,0,0,1,14.25,5.52q48.06,27.26,96.09,54.58A16.81,16.81,0,0,1,193.61,88.61ZM451.32,276.53c15-11.92,14.86-28.87,0-41.06a59.93,59.93,0,0,0-8.09-5.49c-9.16-5.32-18.4-10.52-27.61-15.76l0,83.47C427.72,291,440.44,285.16,451.32,276.53Z"/><path class="cls-2" d="M415.67,214.22q0,41.73,0,83.47c-21.31,12.29-42.57,24.66-63.94,36.83-15.91,9.08-32,17.89-47.95,26.82-2.31-1.32-4.83-.72-7.24-.72q-88.89,0-177.78.13c-5,0-7.16-.69-7.15-6.55q.32-129.81.05-259.61c0-5,1.65-6.13,6.33-6.09,25.22.2,50.44.1,75.66.11,71.71,0,143.41.13,215.13,0,5.66,0,7,1.5,7,7C415.52,135.12,415.64,174.68,415.67,214.22Z"/><rect class="cls-3" height="22.16" width="34.47" x="142.37" y="307.69"/><rect class="cls-3" height="22.16" width="34.47" x="142.37" y="244.9"/><rect class="cls-3" height="22.16" width="34.47" x="351.66" y="244.9"/><rect class="cls-3" height="22.16" width="34.47" x="351.66" y="182.11"/><rect class="cls-3" height="22.16" width="34.47" x="142.37" y="182.11"/><rect class="cls-3" height="22.16" width="34.47" x="142.37" y="119.33"/><rect class="cls-3" height="22.16" width="34.47" x="350.43" y="119.33"/></g></g></svg>